# xmcd CD database file
#
# Track frame offsets:
#	150
#	15025
#	28602
#	41122
#	53895
#	65215
#	78315
#	90635
#	104485
#	118620
#	132117
#	145472
#	157345
#	171395
#	182762
#	196307
#
# Disc length: 2792 seconds
#
# Revision: 0
# Processed by: cddbd v1.5.2PL0 Copyright (c) Steve Scherf et al.
# Submitted via: CDex 1.51
#
DISCID=e20ae610
DTITLE=Marian McPartland and George Shearing - Savoy Jazz Classics
DYEAR=2003
DGENRE=Jazz
TTITLE0=Marian McPartland - It Might As Well Be Spring
TTITLE1=Marian McPartland - Gypsy In My Soul
TTITLE2=Marian McPartland - Strike Up The Band
TTITLE3=Marian McPartland - Love Is Here To Stay
TTITLE4=Marian McPartland - Love For Sale
TTITLE5=Marian McPartland - Yesterdays
TTITLE6=Marian McPartland - All The Things You Are
TTITLE7=Marian McPartland - Moonlight In Vermont
TTITLE8=George Shearing - Sweet And Lovely
TTITLE9=George Shearing - When Darkness Falls
TTITLE10=George Shearing - So Rare
TTITLE11=George Shearing - Bop's Your Uncle
TTITLE12=George Shearing - Sophisticated Lady
TTITLE13=George Shearing - Buccaneer's Bounce
TTITLE14=George Shearing - Cozy's Bop
TTITLE15=George Shearing - Have You Met Miss Jones
EXTD=YEAR: 2003
EXTT0=
EXTT1=
EXTT2=
EXTT3=
EXTT4=
EXTT5=
EXTT6=
EXTT7=
EXTT8=
EXTT9=
EXTT10=
EXTT11=
EXTT12=
EXTT13=
EXTT14=
EXTT15=
PLAYORDER=
